PathFileType	4	(X/Y/Z)	/Users/itak/Documents/Research/Walk-IL/dataset/trc/00171_00008.trc
DataRate	CameraRate	NumFrames	NumMarkers	Units	OrigDataRate	OrigDataStartFrame	OrigNumFrames
100.000000	100.000000	4	53	mm	100.000000	404	539
Frame#	Time	RPSI			LPSI			L3			STRN			T10			C7			CLAV			RBAK			LBAK			LSHO			LUPA			LAEL			LAOL			LWTS			LWPS			LFRA			LIFD			LHPS			LHTS			RSHO			RUPA			RAEL			RAOL			RWTS			RWPS			RFRA			RIFD			RHTS			RHPS			RBHD			LFHD			RFHD			LBHD			LHIP			RHIP			RASI			LASI			LKNE			LTHI			LANK			LTIP			LTOE			LMT1			LMT5			LHEE			RKNE			RTHI			RANK			RTIP			RTOE			RMT1			RMT5			RHEE			
		X1	Y1	Z1	X2	Y2	Z2	X3	Y3	Z3	X4	Y4	Z4	X5	Y5	Z5	X6	Y6	Z6	X7	Y7	Z7	X8	Y8	Z8	X9	Y9	Z9	X10	Y10	Z10	X11	Y11	Z11	X12	Y12	Z12	X13	Y13	Z13	X14	Y14	Z14	X15	Y15	Z15	X16	Y16	Z16	X17	Y17	Z17	X18	Y18	Z18	X19	Y19	Z19	X20	Y20	Z20	X21	Y21	Z21	X22	Y22	Z22	X23	Y23	Z23	X24	Y24	Z24	X25	Y25	Z25	X26	Y26	Z26	X27	Y27	Z27	X28	Y28	Z28	X29	Y29	Z29	X30	Y30	Z30	X31	Y31	Z31	X32	Y32	Z32	X33	Y33	Z33	X34	Y34	Z34	X35	Y35	Z35	X36	Y36	Z36	X37	Y37	Z37	X38	Y38	Z38	X39	Y39	Z39	X40	Y40	Z40	X41	Y41	Z41	X42	Y42	Z42	X43	Y43	Z43	X44	Y44	Z44	X45	Y45	Z45	X46	Y46	Z46	X47	Y47	Z47	X48	Y48	Z48	X49	Y49	Z49	X50	Y50	Z50	X51	Y51	Z51	X52	Y52	Z52	X53	Y53	Z53	

405	4.04	-1019.839599609375	1067.440185546875	376.2585754394531	-1029.083129882812	1067.204833984375	252.8427276611328	-1021.367248535156	1105.820556640625	315.8489379882812	-761.3489990234375	1314.669311523438	291.2665100097656	-1053.25341796875	1259.514038085938	310.2483825683594	-994.7805786132812	1531.64892578125	295.6912536621094	-791.92236328125	1428.046020507812	284.5092163085938	-1050.023315429688	1353.607055664062	407.8373413085938	-1006.884338378906	1506.578857421875	194.6541442871094	-934.149169921875	1494.427978515625	110.8286056518555	-968.8106689453125	1361.576049804688	38.68508911132812	-950.7929077148438	1144.58056640625	20.42535018920898	-987.9180908203125	1127.2333984375	99.26467895507812	-823.4306030273438	920.3733520507812	36.38357543945312	-908.2611083984375	893.94970703125	6.638757705688477	-932.9672241210938	1035.070678710938	4.544491767883301	-794.8931884765625	738.1715087890625	57.51586151123047	-881.7628173828125	825.7288818359375	7.429336547851562	-810.5725708007812	842.2659301757812	14.71377182006836	-919.8875122070312	1509.672607421875	472.1833801269531	-934.07958984375	1441.845092773438	542.40234375	-944.4038696289062	1153.353637695312	594.2380981445312	-950.5006713867188	1144.418823242188	494.5563659667969	-809.2232055664062	924.5728759765625	581.0144653320312	-883.4827880859375	910.3474731445312	628.6424560546875	-920.4508056640625	1082.21337890625	613.734375	-801.3473510742188	736.428466796875	560.3143310546875	-785.3687133789062	829.8846435546875	592.16552734375	-859.2283935546875	826.5244140625	628.374267578125	-934.8529663085938	1695.714965820312	371.3340148925781	-792.040283203125	1742.237548828125	213.011962890625	-769.2474365234375	1742.556396484375	341.0464782714844	-965.0772705078125	1703.098266601562	236.5819854736328	-939.2853393554688	1002.679626464844	126.1815795898438	-858.155029296875	1024.348754882812	488.8828125	-781.9068603515625	1050.4765625	426.8501281738281	-809.4484252929688	1040.026733398438	169.7189483642578	-878.287841796875	504.4664306640625	144.9986267089844	-891.2630615234375	646.9219970703125	121.5893325805664	-979.0155029296875	40.65351486206055	136.6945343017578	-923.8698120117188	277.1505432128906	129.8228607177734	-763.361572265625	60.5694694519043	133.6129608154297	-802.6770629882812	50.31009674072266	187.3575439453125	-876.156982421875	37.02030944824219	86.29927062988281	-1019.651000976562	37.64089202880859	213.5482177734375	-851.730712890625	522.763427734375	456.0607604980469	-806.3505249023438	790.924560546875	489.5032043457031	-930.779296875	28.84346199035645	429.9480590820312	-843.5806274414062	402.8734130859375	437.7896423339844	-715.9598388671875	79.6485595703125	413.3312072753906	-763.4505004882812	66.42610168457031	363.7995300292969	-820.0518798828125	37.76065826416016	468.9296875	-977.4174194335938	32.64266967773438	356.491943359375	
406	4.05	-1021.092102050781	1067.345703125	374.5518798828125	-1029.975341796875	1067.03125	251.1513214111328	-1022.414001464844	1105.739990234375	314.2362060546875	-762.408447265625	1314.732299804688	289.8839721679688	-1054.313110351562	1259.4853515625	309.088134765625	-995.9116821289062	1531.64208984375	294.4020080566406	-793.0277099609375	1428.10546875	283.0097961425781	-1050.85205078125	1353.654296875	406.7305908203125	-1008.116027832031	1506.475708007812	193.3607940673828	-935.4961547851562	1494.25048828125	109.5058441162109	-970.173095703125	1361.384887695312	37.39550399780273	-951.706298828125	1144.29833984375	18.98226737976074	-989.0047607421875	1126.862915039062	97.68656921386719	-822.1890258789062	921.4156494140625	35.83757400512695	-906.70263671875	893.94580078125	5.749074935913086	-932.8969116210938	1034.83642578125	3.297981977462769	-791.7449340820312	739.5553588867188	57.35048675537109	-879.3924560546875	826.03271484375	6.804654598236084	-808.466796875	843.3765258789062	14.32135486602783	-920.7100219726562	1509.892333984375	470.7848510742188	-934.6407470703125	1442.072387695312	541.107421875	-944.2183837890625	1153.308959960938	592.7534790039062	-950.7491455078125	1144.638549804688	493.1353454589844	-807.9786987304688	925.1734008789062	578.0054931640625	-881.8374633789062	910.4195556640625	626.0450439453125	-919.8438110351562	1082.15283203125	611.9153442382812	-799.127685546875	737.2836303710938	556.4334716796875	-783.5331420898438	830.6002807617188	588.5958862304688	-856.9713745117188	826.742919921875	625.1929321289062	-935.9830322265625	1695.754516601562	369.756103515625	-793.138427734375	1742.212524414062	211.4865264892578	-770.359375	1742.575927734375	339.5236511230469	-966.21826171875	1703.143188476562	235.0377655029297	-939.9663696289062	1002.583435058594	124.6128005981445	-859.8214721679688	1024.341186523438	487.5337524414062	-783.0826416015625	1050.667114257812	425.9125061035156	-810.114501953125	1040.005981445312	168.6365203857422	-879.6806640625	504.5446166992188	144.4354400634766	-892.4461059570312	646.9154052734375	120.8615570068359	-979.114013671875	40.59452819824219	136.6900329589844	-924.70556640625	277.1221923828125	129.5787658691406	-763.5107421875	60.75550079345703	133.2656555175781	-802.70361328125	50.41423416137695	187.0827026367188	-876.3851318359375	37.10224533081055	86.14986419677734	-1019.631896972656	37.45899200439453	213.6461944580078	-851.248291015625	522.8681030273438	454.846923828125	-807.2091674804688	791.1292724609375	488.5966491699219	-930.6204833984375	29.12488746643066	429.7398986816406	-842.922119140625	402.845703125	436.6021728515625	-715.661376953125	79.17853546142578	412.77392578125	-763.3668212890625	65.76804351806641	363.4571533203125	-819.8347778320312	37.98272323608398	468.6060791015625	-977.2761840820312	32.67562484741211	356.2930908203125	
407	4.06	-1022.32080078125	1067.206665039062	372.7912292480469	-1030.80078125	1066.83447265625	249.399169921875	-1023.43212890625	1105.6259765625	312.5548095703125	-763.3955078125	1314.740356445312	288.5390319824219	-1055.342407226562	1259.404541015625	307.836669921875	-997.0001831054688	1531.597900390625	293.091796875	-794.07470703125	1428.086791992188	281.5477905273438	-1051.692504882812	1353.619873046875	405.546875	-1009.257080078125	1506.302368164062	192.0226135253906	-936.7468872070312	1493.951538085938	108.1609268188477	-971.4746704101562	1361.046875	36.1253547668457	-952.6386108398438	1143.874145507812	17.51074409484863	-990.1176147460938	1126.350952148438	96.07331085205078	-821.0294799804688	922.3256225585938	35.31319427490234	-905.1596069335938	893.812744140625	4.866809844970703	-932.8532104492188	1034.464477539062	2.037192821502686	-788.5980224609375	740.868408203125	57.16773986816406	-877.0479736328125	826.2341918945312	6.174326419830322	-806.3920288085938	844.4030151367188	13.93392372131348	-921.54638671875	1510.011108398438	469.399169921875	-935.2496337890625	1442.171264648438	539.7982788085938	-944.0072021484375	1153.16162109375	591.3770751953125	-951.0314331054688	1144.7255859375	491.8412170410156	-806.6239624023438	925.7337646484375	574.9738159179688	-880.0130004882812	910.4312133789062	623.4959106445312	-919.1820068359375	1081.992919921875	610.1913452148438	-796.7216186523438	738.1113891601562	552.5503540039062	-781.48828125	831.333251953125	584.9969482421875	-854.51123046875	826.9261474609375	622.0577392578125	-937.078369140625	1695.767578125	368.1597595214844	-794.2183227539062	1742.134155273438	209.9239501953125	-771.4375610351562	1742.581787109375	337.9551086425781	-967.3225708007812	1703.104614257812	233.4718170166016	-940.5498657226562	1002.440856933594	123.0295486450195	-861.4005126953125	1024.327880859375	486.1706237792969	-784.206787109375	1050.823852539062	424.9532165527344	-810.7138671875	1039.907958984375	167.5464782714844	-881.0505981445312	504.6082458496094	143.8898010253906	-893.5867309570312	646.8756713867188	120.153450012207	-979.2092895507812	40.54549407958984	136.7096405029297	-925.5189208984375	277.0740051269531	129.3657073974609	-763.6448974609375	60.87359619140625	132.9566040039062	-802.71923828125	50.47397994995117	186.8470916748047	-876.5902099609375	37.17195510864258	86.02768707275391	-1019.620849609375	37.27832794189453	213.7604827880859	-850.729248046875	522.9594116210938	453.686279296875	-808.0119018554688	791.3239135742188	487.6961669921875	-930.476318359375	29.38437843322754	429.5563354492188	-842.2335815429688	402.803466796875	435.4736328125	-715.3705444335938	78.68670654296875	412.3321838378906	-763.2647705078125	65.09878540039062	363.2036743164062	-819.65966796875	38.18647003173828	468.3539733886719	-977.1331787109375	32.73014450073242	356.0985107421875	
408	4.07	-1023.499755859375	1067.036499023438	371.0313720703125	-1031.578491210938	1066.63232421875	247.6422119140625	-1024.421142578125	1105.489501953125	310.8570251464844	-764.3148803710938	1314.708740234375	287.2220153808594	-1056.339477539062	1259.282836914062	306.5115356445312	-998.04736328125	1531.521850585938	291.7579345703125	-795.0640869140625	1428.009155273438	280.1191101074219	-1052.546508789062	1353.51953125	404.2969665527344	-1010.318420410156	1506.07421875	190.6503601074219	-937.9080200195312	1493.558227539062	106.7955780029297	-972.7059326171875	1360.591186523438	34.86985778808594	-953.5591430664062	1143.33837890625	16.02716827392578	-991.223388671875	1125.728393554688	94.44564819335938	-819.9629516601562	923.0947875976562	34.80949783325195	-903.6551513671875	893.5762939453125	4.000565052032471	-932.8248901367188	1033.985473632812	0.7759780287742615	-785.5112915039062	742.1016235351562	56.96446228027344	-874.771728515625	826.3450317382812	5.539890766143799	-804.3868408203125	845.3414306640625	13.54558753967285	-922.3960571289062	1510.037963867188	468.0250854492188	-935.906982421875	1442.153442382812	538.4741821289062	-943.7813720703125	1152.925537109375	590.0888671875	-951.3414916992188	1144.68994140625	490.6517333984375	-805.1724243164062	926.2749633789062	571.9378051757812	-878.0283813476562	910.3997192382812	620.9999389648438	-918.4815063476562	1081.74853515625	608.5516967773438	-794.1324462890625	738.9317016601562	548.6989135742188	-779.2528076171875	832.099609375	581.3929443359375	-851.8521728515625	827.0925903320312	618.9824829101562	-938.14306640625	1695.759521484375	366.5522155761719	-795.2780151367188	1742.017456054688	208.3340911865234	-772.4852294921875	1742.576904296875	336.3525695800781	-968.3869018554688	1702.995727539062	231.888427734375	-941.0613403320312	1002.275085449219	121.4661254882812	-862.8522338867188	1024.310180664062	484.8028869628906	-785.2843627929688	1050.94287109375	423.9523010253906	-811.2695922851562	1039.764892578125	166.4431457519531	-882.3805541992188	504.6583862304688	143.35498046875	-894.6565551757812	646.8173828125	119.4512939453125	-979.297607421875	40.50345611572266	136.7435455322266	-926.2847290039062	277.0116882324219	129.1659240722656	-763.7594604492188	60.92770385742188	132.6942596435547	-802.7277221679688	50.49600601196289	186.6543731689453	-876.7667236328125	37.2241096496582	85.93134307861328	-1019.623413085938	37.11410522460938	213.8714294433594	-850.229736328125	523.0399780273438	452.5623168945312	-808.771728515625	791.4971313476562	486.7815856933594	-930.3397827148438	29.62647247314453	429.3929443359375	-841.57080078125	402.7513427734375	434.3908386230469	-715.0975341796875	78.19659423828125	411.9705810546875	-763.1544799804688	64.43767547607422	363.0061645507812	-819.5238037109375	38.38071823120117	468.1542358398438	-976.9967041015625	32.79323196411133	355.9070129394531	
